<?xml version="1.0" standalone="no"?>
<!DOCTYPE svg PUBLIC "-//W3C//DTD SVG 20010904//EN"
 "http://www.w3.org/TR/2001/REC-SVG-20010904/DTD/svg10.dtd">
<svg version="1.0" xmlns="http://www.w3.org/2000/svg"
 width="500.000000pt" height="500.000000pt" viewBox="0 0 500.000000 500.000000"
 preserveAspectRatio="xMidYMid meet">
<metadata>
Created by potrace 1.11, written by Peter Selinger 2001-2013
</metadata>
<g transform="translate(0.000000,500.000000) scale(0.100000,-0.100000)"
fill="#000000" stroke="none">
<path d="M0 2500 l0 -2500 2500 0 2500 0 0 2500 0 2500 -2500 0 -2500 0 0
-2500z m3786 1684 c15 -11 37 -33 48 -48 20 -26 21 -40 21 -311 0 -271 -1
-285 -21 -311 -11 -15 -33 -37 -48 -48 -27 -21 -30 -21 -1286 -21 -1256 0
-1259 0 -1286 21 -69 51 -69 51 -72 322 -2 136 -1 266 3 290 8 52 53 108 99
121 18 6 541 9 1273 8 1237 -2 1242 -2 1269 -23z m-6 -833 c19 -10 44 -34 55
-52 18 -31 20 -55 23 -296 3 -244 2 -266 -17 -307 -12 -28 -33 -53 -53 -66
-33 -20 -46 -20 -1288 -20 -1242 0 -1255 0 -1288 20 -20 13 -41 38 -53 66 -19
41 -20 63 -17 307 3 241 5 265 23 296 11 18 36 42 55 52 33 18 84 19 1280 19
1196 0 1247 -1 1280 -19z m8 -841 c20 -13 41 -38 53 -66 19 -41 20 -63 17
-307 -3 -241 -5 -265 -23 -296 -11 -18 -36 -42 -55 -52 -33 -18 -84 -19 -1280
-19 -1196 0 -1247 1 -1280 19 -19 10 -44 34 -55 52 -18 31 -20 55 -23 296 -3
244 -2 266 17 307 12 28 33 53 53 66 33 20 46 20 1288 20 1242 0 1255 0 1288
-20z m-1128 -1005 l0 -185 130 0 130 0 0 -50 0 -50 453 -2 452 -3 0 -160 0
-160 -452 -3 -453 -2 0 -50 0 -50 -420 0 -420 0 0 50 0 50 -452 2 -453 3 0
160 0 160 453 3 452 2 0 50 0 50 130 0 130 0 0 185 0 185 160 0 160 0 0 -185z"/>
<path d="M1346 4019 c-28 -22 -36 -72 -16 -108 16 -31 65 -46 100 -31 37 15
50 37 50 84 0 41 -37 76 -80 76 -15 0 -39 -9 -54 -21z"/>
<path d="M2870 3720 l0 -100 305 0 305 0 0 100 0 100 -305 0 -305 0 0 -100z"/>
<path d="M1364 3196 c-51 -22 -62 -95 -21 -134 54 -51 137 -13 137 61 0 35
-27 77 -49 77 -5 0 -15 2 -23 5 -7 2 -27 -2 -44 -9z"/>
<path d="M2870 2890 l0 -100 305 0 305 0 0 100 0 100 -305 0 -305 0 0 -100z"/>
<path d="M1345 2345 c-52 -51 -16 -145 55 -145 44 0 80 39 80 85 0 46 -36 85
-80 85 -19 0 -40 -9 -55 -25z"/>
<path d="M2870 2050 l0 -100 305 0 305 0 0 100 0 100 -305 0 -305 0 0 -100z"/>
</g>
</svg>
